<svg xmlns="http://www.w3.org/2000/svg" viewBox="0 0 2148.01 550"><defs><style>.cls-1{fill:#265787;}.cls-2{fill:#fff;}.cls-3{fill:#ea7600;}</style></defs><g id="Blender"><g id="Wordmark"><path class="cls-1" d="M1867.88,279c1.9-21.19,18.27-34.62,43.29-34.62s41.4,13.43,43.3,34.62Zm84,52.29c-6.41,15.7-21.51,25-42,25-25.68,0-43-16-43.66-41.35h147.61v-7.45c0-63.43-37.23-99.08-103.95-99.08-64.79,0-104,36-104,92.41,0,56.77,39.79,92.69,104,92.69,38.51,0,68.37-13.2,86.78-36.4l-44.77-25.81Z"/><path class="cls-1" d="M1212.92,279.15c2-21.18,18.33-34.62,43.36-34.62s41.37,13.44,43.29,34.62ZM1297,331.44c-6.41,15.74-21.5,25-42,25-25.63,0-43-16.07-43.64-41.4h147.58v-7.41c0-63.46-37.22-99.12-103.94-99.12-64.82,0-103.91,36-103.91,92.42,0,56.77,39.76,92.69,103.91,92.69,38.5,0,68.38-13.15,86.82-36.39L1297,331.44Z"/><rect class="cls-1" x="1084.6" y="170.14" width="53.23" height="217.77"/><path class="cls-1" d="M1372.11,228h53.53v13c18.95-20.23,41.71-30.45,67.37-30.45,29.56,0,51.94,10.22,63.5,27.63,9.65,14.37,10.28,31.72,10.28,54.52v95.24h-53.61V304.2c0-34.72-7-50.75-37.46-50.75-30.81,0-50.08,18.35-50.08,49.15v85.28h-53.53V228Z"/><path class="cls-1" d="M1739.22,303.57c0,29.8-19.91,49.35-50.73,49.35s-50.75-18.88-50.75-49c0-30.57,19.65-49.44,50.75-49.44C1719.31,254.47,1739.22,273.67,1739.22,303.57Zm0-68.35c-13.53-14.51-33.11-22.47-60.33-22.47-58.73,0-98.82,36.21-98.82,90.48,0,53.21,39.82,90.43,97.85,90.43,26.61,0,46.15-6.72,61.3-21.81v16h53.56V156.3l-53.56,13.81Z"/><path class="cls-1" d="M962.93,254.5c31.13,0,50.7,18.87,50.7,49.45,0,30.12-19.88,49-50.7,49s-50.69-19.55-50.69-49.36S932.13,254.5,962.93,254.5Zm-50.69-84.35-53.58-13.81V387.91h53.58v-16c15.08,15.09,34.65,21.82,61.28,21.82,58.07,0,97.83-37.23,97.83-90.43,0-54.27-40.11-90.48-98.8-90.48-27.27,0-46.84,8-60.31,22.46v-65.1Z"/><path class="cls-1" d="M2027.07,387.93V228h53.56v9.88c16-19.32,33-28.93,52.32-28.93,3.83,0,8.65.62,15.06,1.25v45.59a136.89,136.89,0,0,0-17-.67c-31.14,0-50.36,20.53-50.36,55.46v77.32Z"/></g><g id="Logo"><path class="cls-2" d="M266.34,305.16c2.47-44,24-82.79,56.54-110.27,31.88-27,74.8-43.5,121.63-43.5s89.7,16.5,121.61,43.5c32.49,27.48,54,66.26,56.53,110.22,2.47,45.23-15.71,87.24-47.59,118.38C542.54,455.16,496.3,475,444.51,475s-98.13-19.88-130.62-51.55c-31.91-31.14-50-73.15-47.55-118.33Z"/><path class="cls-1" d="M353,309.14c1.27-22.58,12.32-42.48,29-56.58,16.36-13.86,38.38-22.32,62.41-22.32s46,8.46,62.4,22.32c16.67,14.1,27.73,34,29,56.55,1.27,23.21-8.06,44.76-24.42,60.74-16.68,16.26-40.41,26.45-67,26.45s-50.35-10.19-67-26.45c-16.38-16-25.68-37.53-24.4-60.71Z"/><path class="cls-3" d="M207.38,354.88c.16,8.83,3,26,7.2,39.42a208.06,208.06,0,0,0,44.93,77.79,232,232,0,0,0,78.63,56.46,257.05,257.05,0,0,0,206.42-.36,233.59,233.59,0,0,0,78.57-56.69,209.68,209.68,0,0,0,44.92-77.93,195.82,195.82,0,0,0,7-86.71,200.84,200.84,0,0,0-28.65-78.4,218.55,218.55,0,0,0-52.26-57.62l.05,0L382.72,8.4c-.19-.14-.35-.3-.55-.43C368.29-2.68,345-2.65,329.7,8c-15.43,10.79-17.2,28.65-3.47,39.91l-.06.06,88.22,71.74L145.51,120h-.36c-22.22,0-43.59,14.61-47.82,33-4.34,18.78,10.75,34.35,33.86,34.43l0,.09,136.28-.27L24.25,374c-.31.23-.65.47-.93.69C.37,392.23-7,421.44,7.41,439.93c14.66,18.8,45.85,18.83,69,.11L209.16,331.41s-1.93,14.66-1.78,23.47ZM548.44,404c-27.34,27.86-65.63,43.66-107.06,43.75s-79.77-15.59-107.12-43.4A127.41,127.41,0,0,1,305,358.57a118.93,118.93,0,0,1-6.71-51.14A120.69,120.69,0,0,1,313,259.29a132.44,132.44,0,0,1,32.53-38.68c26.58-21.66,60.42-33.39,95.82-33.44s69.25,11.57,95.86,33.17a132.11,132.11,0,0,1,32.5,38.56A120.8,120.8,0,0,1,584.39,307a119.11,119.11,0,0,1-6.74,51.1A127.73,127.73,0,0,1,548.44,404Z"/></g></g></svg>