<svg xmlns="http://www.w3.org/2000/svg" viewBox="0 0 2087.43 550"><defs><style>.cls-1{fill:#fa0c00;}</style></defs><g id="Adobe"><g id="Wordmark"><path class="cls-1" d="M996.66,372.22,1023.78,450a4.49,4.49,0,0,0,4.64,2.85h52.14c2.85,0,3.29-1.35,2.85-4.2L975.68,149.43c-.45-2.4-.9-2.85-3.29-2.85H907.66c-1.79,0-2.84,1.35-2.84,3.3-.9,15.73-2.25,20.52-4.2,25.17l-96,273.13c-.44,3.29.6,4.64,3.3,4.64h46.6c2.84,0,4.19-.9,5.24-3.75l25.62-76.85Zm-96.49-50.79c14.09-42.55,32.66-97.09,40.15-128.25h.45c9.29,32.66,31.17,97.38,41.06,128.25Z"/><path class="cls-1" d="M1221.89,457.46a221,221,0,0,0,88.1-18.12c2.39-.9,2.84-1.95,2.84-4.2-.9-8.39-1.94-20.52-1.94-29.81V123.66c0-1.8,0-2.7-2.25-2.7h-50.79c-1.95,0-2.85.9-2.85,3.3V219.7a166.75,166.75,0,0,0-20.07-1.35c-82,0-132.3,54.08-132.3,121.65C1102.63,418.36,1154.32,457.46,1221.89,457.46ZM1255,405.33a89.46,89.46,0,0,1-27.12,3.74c-37.15,0-67.57-21-67.57-71.91,0-45.1,31.32-71.77,72.82-71.77,8.39,0,15.73.9,21.87,3.3Z"/><path class="cls-1" d="M1474.86,218.35c-70,0-113.26,53.63-113.26,119.86,0,59.18,34.46,119.25,112.21,119.25,65.78,0,111.92-48.39,111.92-120.75C1585.73,272.88,1546.63,218.35,1474.86,218.35Zm-2.84,47c39.55,0,56.33,34,56.33,72.82,0,47.94-24.72,71.76-53.49,71.76-35.5,0-56.48-29.81-56.48-72.81C1418.38,293,1440.7,265.39,1472,265.39Z"/><path class="cls-1" d="M1638.24,121c-2,0-3.29.9-3.29,3.3V443.08a4.91,4.91,0,0,0,3.29,4.2,235.83,235.83,0,0,0,69.82,10.18c69.07,0,136.19-42.84,136.19-129.14,0-62.48-42.85-110-110-110a134.44,134.44,0,0,0-42.4,6.59l-.6-100.23c0-3.3-.9-3.75-4.2-3.75ZM1786.87,334c0,51.69-35.36,76-73.57,76-7.94,0-15-.45-21.42-2.4v-136c7.34-2.84,16.18-5.24,32.51-5.24C1761.25,266.29,1786.87,289.66,1786.87,334Z"/><path class="cls-1" d="M2033.8,350.79c22.77,0,41.5-.45,47.94-2,2.4-.45,3.3-1.35,3.74-3.29,1.35-5.1,1.95-15.73,1.95-28.77,0-44.35-26.67-98.43-95.58-98.43-70.42,0-109.52,57.38-109.52,122.1,0,57.38,30.26,117,115.06,117,31.76,0,52.29-5.09,70-13.48,1.79-.9,2.69-2.4,2.69-5.09V400.08c0-2.25-1.35-2.69-2.69-1.8-17.68,7.5-36.86,11.24-57.84,11.24-47.49,0-69.06-26.22-70.41-58.73Zm-94.69-40.15c3.74-22.78,18.13-47.5,50.34-47.5,35.51,0,44.8,29.82,44.8,43.3v3.75c-2,.45-8,.45-25.62.45Z"/></g><g id="Logo"><path class="cls-1" d="M230,14.21H0v550Z"/><path class="cls-1" d="M391.79,14.21H621.47v550Z"/><path class="cls-1" d="M310.88,216.92,457.26,564.21h-96L317.47,453.64H210.35Z"/></g></g></svg>