<svg xmlns="http://www.w3.org/2000/svg" xmlns:xlink="http://www.w3.org/1999/xlink" width="288" height="225" viewBox="0 0 288 225">
  <defs>
    <filter id="Background" x="0" y="0" width="288" height="225" filterUnits="userSpaceOnUse">
      <feOffset dy="14" input="SourceAlpha"/>
      <feGaussianBlur stdDeviation="20" result="blur"/>
      <feFlood flood-opacity="0.078"/>
      <feComposite operator="in" in2="blur"/>
      <feComposite in="SourceGraphic"/>
    </filter>
  </defs>
  <g id="Design_Crowd" data-name="Design Crowd" transform="translate(60 46)">
    <g transform="matrix(1, 0, 0, 1, -60, -46)" filter="url(#Background)">
      <rect id="Background-2" data-name="Background" width="168" height="105" rx="5" transform="translate(60 46)" fill="#228cbe"/>
    </g>
    <g id="Assest" transform="translate(59 29)">
      <path id="Path_170" data-name="Path 170" d="M525.4,394.8a24.713,24.713,0,0,0,2.445,2.525c2.114,2.11,5.827,7.1,5.217,9.944-.344,1.607-4.063,3.774-5.577,4.525l-7.055,3.045a9.8,9.8,0,0,0,2.068-.337c.516-.1,1.558-.254,2.11-.295,4.3-.318,8.372-.065,11.5,3.073,2.692,2.7.483,8.559-.586,11.525l-1.462,3.508,3.617-4.88c1.8-2.385,4.655-5.744,7.334-7.095,2.823-1.423,6.377.174,8.633,1.849l5.906,5.636-1.924-3.527c-1.558-3.134-4.96-9.3-1.645-12.226,2.291-2.019,7.955-4.518,10.924-5.588.67-.241,1.24-.456,2-.721a9.167,9.167,0,0,0,2.022-.863c-3.4,0-8.5,1.126-13.425.119a3.533,3.533,0,0,1-2.877-1.932c-.981-1.848-1.424-5.248-1.337-8.131.026-.845.155-1.218.161-2.244.013-2.039.784-5.438.806-6.408A46.461,46.461,0,0,1,550,393.909l-1.31,1.575a16.036,16.036,0,0,1-1.553,1.493c-4.568,3.572-8.35,4.016-13.857,1.968a40.007,40.007,0,0,1-5.986-2.992A9,9,0,0,0,525.4,394.8Z" transform="translate(-520.429 -386.303)" fill="#fff" fill-rule="evenodd"/>
      <path id="Path_171" data-name="Path 171" d="M597.043,397.846c0,6.606,9.3,6.092,9.3.16,0-3.819-4.915-6.218-7.82-3.331a4.011,4.011,0,0,0-1.479,3.171Z" transform="translate(-581.012 -391.914)" fill="#fff" fill-rule="evenodd"/>
      <path id="Path_172" data-name="Path 172" d="M693.577,425.269a4.587,4.587,0,0,0,4.168,4.649,4.76,4.76,0,0,0,3.813-1.317c2.968-2.968.47-7.821-2.851-7.821a4.76,4.76,0,0,0-3.892,1.4,4.836,4.836,0,0,0-1.239,3.09Z" transform="translate(-657.346 -413.566)" fill="#fff" fill-rule="evenodd"/>
      <path id="Path_173" data-name="Path 173" d="M698.941,513.038a4.06,4.06,0,1,0,5.826-3.581,4.1,4.1,0,0,0-5.826,3.581Z" transform="translate(-661.588 -483.381)" fill="#fff" fill-rule="evenodd"/>
      <path id="Path_174" data-name="Path 174" d="M632.286,570.8a3.8,3.8,0,0,0,6.458,2.77,3.725,3.725,0,0,0-2.61-6.458,3.847,3.847,0,0,0-3.848,3.687Z" transform="translate(-608.88 -529.279)" fill="#fff" fill-rule="evenodd"/>
      <path id="Path_175" data-name="Path 175" d="M529.623,466.588c0,4.329,6.893,4.7,6.893-.16a3.486,3.486,0,0,0-3.494-3.324,3.525,3.525,0,0,0-3.4,3.485Z" transform="translate(-527.699 -447.031)" fill="#fff" fill-rule="evenodd"/>
      <path id="Path_176" data-name="Path 176" d="M548.776,541.222a3.374,3.374,0,1,0,6.733-.16c0-4.015-6.733-4.149-6.733.16Z" transform="translate(-542.845 -506.274)" fill="#fff" fill-rule="evenodd"/>
    </g>
  </g>
</svg>
