<svg xmlns="http://www.w3.org/2000/svg" xmlns:xlink="http://www.w3.org/1999/xlink" width="288" height="225" viewBox="0 0 288 225">
  <defs>
    <filter id="Background" x="0" y="0" width="288" height="225" filterUnits="userSpaceOnUse">
      <feOffset dy="14" input="SourceAlpha"/>
      <feGaussianBlur stdDeviation="20" result="blur"/>
      <feFlood flood-opacity="0.078"/>
      <feComposite operator="in" in2="blur"/>
      <feComposite in="SourceGraphic"/>
    </filter>
  </defs>
  <g id="Design_Contest" data-name="Design Contest" transform="translate(60 46)">
    <g transform="matrix(1, 0, 0, 1, -60, -46)" filter="url(#Background)">
      <rect id="Background-2" data-name="Background" width="168" height="105" rx="5" transform="translate(60 46)" fill="#22c2f2"/>
    </g>
    <path id="Assest" d="M135.94,119.029,121.031,105.6a18.644,18.644,0,0,1,12.026-32.579,16.26,16.26,0,0,1,11.962,4.368,6.3,6.3,0,0,1-8.915,8.915,4.24,4.24,0,0,0-2.717-.68,6.037,6.037,0,0,0-3.919,10.607l5.539,4.988,20.421-22.68a6.3,6.3,0,1,1,9.369,8.436Z" transform="translate(-56.821 -44.019)" fill="#fff"/>
  </g>
</svg>
