<?xml version="1.0" encoding="utf-8"?>
<!-- Generator: Adobe Illustrator 24.3.0, SVG Export Plug-In . SVG Version: 6.00 Build 0)  -->
<svg version="1.1" id="Layer_1" xmlns="http://www.w3.org/2000/svg" xmlns:xlink="http://www.w3.org/1999/xlink" x="0px" y="0px"
	 viewBox="0 0 80 80" style="enable-background:new 0 0 80 80;" xml:space="preserve">
<style type="text/css">
	.st0{fill:none;stroke:#E95841;stroke-width:3;stroke-linecap:round;stroke-linejoin:round;}
</style>
<path class="st0" d="M40,56.2c6.9,0,12.5-5.6,12.5-12.5S46.9,31.2,40,31.2s-12.5,5.6-12.5,12.5S33.1,56.2,40,56.2z"/>
<path class="st0" d="M22,67.5c1.6-3.4,4.2-6.2,7.4-8.2c3.2-2,6.9-3,10.6-3c3.8,0,7.4,1.1,10.6,3c3.2,2,5.7,4.8,7.4,8.2"/>
<path class="st0" d="M63.9,36.4c2.4,0.3,4.8,1.2,6.9,2.4s4,2.9,5.4,4.9"/>
<path class="st0" d="M52.2,21.9c0.7-1.5,1.8-2.8,3.2-3.8c1.4-1,3-1.6,4.6-1.8c1.7-0.2,3.4,0,4.9,0.6c1.6,0.6,2.9,1.6,4,2.9
	c1.1,1.3,1.8,2.8,2.1,4.5c0.3,1.7,0.2,3.4-0.3,5c-0.5,1.6-1.4,3-2.7,4.2c-1.2,1.2-2.7,2-4.3,2.4"/>
<path class="st0" d="M16.3,35.9c-1.6-0.4-3.1-1.2-4.3-2.4c-1.2-1.2-2.1-2.6-2.7-4.2c-0.5-1.6-0.6-3.3-0.3-5c0.3-1.7,1-3.2,2.1-4.5
	c1.1-1.3,2.4-2.3,4-2.9s3.3-0.8,4.9-0.6c1.7,0.2,3.3,0.8,4.6,1.8c1.4,1,2.5,2.3,3.2,3.8"/>
<path class="st0" d="M3.7,43.7c1.5-2,3.3-3.6,5.4-4.9c2.1-1.3,4.5-2.1,6.9-2.4"/>
</svg>
